M48
INCH
T01C0.0150
T02C0.0200
T03C0.0400
T04C0.0300
T05C0.0250
T06C0.0600
T07C0.0850
%
T01
X+002456Y-018564
T02
X+002454Y-018565
X-006286Y-015157
X+006968Y-009656
X+001031Y+018784
X-001810Y+018792
T03
X+004436Y-005288
X+003436Y-005288
X+002436Y-005288
X+001436Y-005288
X+001436Y-008288
X+002436Y-008288
X+003436Y-008288
X+004436Y-008288
X-001170Y-005267
X-002170Y-005267
X-003170Y-005267
X-004170Y-005267
X-004170Y-008267
X-003170Y-008267
X-002170Y-008267
X-001170Y-008267
X-007397Y-002764
X-006397Y-002764
X-005397Y-002764
X-004397Y-002764
X-003397Y-002764
X-002397Y-002764
X-001397Y-002764
X-000397Y-002764
X+000602Y-002764
X+001602Y-002764
X+002602Y-002764
X+003602Y-002764
X+004602Y-002764
X+005602Y-002764
X+006602Y-002764
X+006602Y+003235
X+005602Y+003235
X+004602Y+003235
X+003602Y+003235
X+002602Y+003235
X+001602Y+003235
X+000602Y+003235
X-000397Y+003235
X-001397Y+003235
X-002397Y+003235
X-003397Y+003235
X-004397Y+003235
X-005397Y+003235
X-006397Y+003235
X-007397Y+003235
X-002700Y-009800
X-003700Y-009800
X+002972Y-009820
X+001972Y-009820
X+011329Y-009556
X+012329Y-009556
X+011351Y-007228
X+012351Y-007228
X+011342Y-004847
X+012342Y-004847
X-007872Y-007262
X-007872Y-006262
X-007872Y-005262
X-008032Y-010242
X-008032Y-009242
X-010686Y-008665
X-011964Y-008655
X-010690Y-009662
X-011968Y-009652
X-010682Y-007637
X-011960Y-007626
X-007433Y+005284
X-006433Y+005284
X+005774Y-007832
X+005774Y-006832
X+005774Y-005832
X+000150Y-007850
X+000150Y-006850
X+000150Y-005850
X+007700Y+005233
X+006794Y+005656
T04
X-011707Y+014112
X-011707Y+015112
X-010707Y+014112
X-010707Y+015112
X-007899Y+015771
X-007899Y+016771
X-006899Y+015771
X-006899Y+016771
X-004816Y+016667
X-004816Y+017667
X-003816Y+016667
X-003816Y+017667
X-001833Y+016839
X-001833Y+017839
X-000833Y+016839
X-000833Y+017839
X+000995Y+016840
X+000995Y+017840
X+001995Y+016840
X+001995Y+017840
X+003984Y+016565
X+003984Y+017565
X+004984Y+016565
X+004984Y+017565
X+007443Y+015844
X+007443Y+016844
X+008443Y+015844
X+008443Y+016844
X+010814Y+014007
X+010814Y+015007
X+011814Y+014007
X+011814Y+015007
X-005916Y+017665
X-005916Y+013665
X-002816Y+015856
X-002816Y+011856
X+003108Y+015818
X+003108Y+011818
X+006104Y+018004
X+006104Y+014004
X+009711Y+016843
X+009711Y+012843
X+012957Y+014958
X+012957Y+010958
X-012714Y+015063
X-012714Y+011063
X-009151Y+016802
X-009151Y+012802
X+003577Y+005538
X+002577Y+005538
X+001577Y+005538
X+000577Y+005538
X-000422Y+005538
X-001422Y+005538
X-002422Y+005538
X-003422Y+005538
X+000612Y-000783
X-003387Y-000783
X+000607Y+001264
X-003392Y+001264
X+008993Y-001597
X+008993Y+002402
X+010196Y-001602
X+010196Y+002397
X+011366Y-001598
X+011366Y+002401
X-011410Y-000650
X-011410Y-002618
X-011361Y+000768
X-011361Y+002737
X+007565Y-007263
X+007565Y-006476
X-011429Y-006034
X-011429Y-005246
T05
X+004577Y+005538
T06
X+000050Y+014400
T07
X-017575Y-017604
X-017568Y-010600
X+017770Y-017515
X+017763Y-010511
M30
